:FULLY-SPECIFIED
:FORCE-ALL-JOINTS-BE-3DOF
:DEGREES
71
root 0.562285 17.4011 1.43958 1.01875 1.94373 1.37809
lfemur -20.0893 -0.241744 -22.9496
ltibia 55.7336 -0 0
lfoot -9.7479 -1.78696 -0.250623
ltoes -14.867 0 0
rfemur -12.6391 -9.18281 19.1689
rtibia 93.477 -0 0
rfoot 15.6197 -6.57472 -0.00951628
rtoes 17.8167 -0 0
lowerback 18.0897 -0.715199 -3.31066
upperback 2.94 -1.68836 -1.68525
thorax -6.86796 -0.763797 0.460894
lowerneck -5.34016 -0.229874 -1.51512
upperneck -10.9938 -0.0346525 3.03678
head -2.43856 -0.02466 1.16538
lclavicle 3.77691e-15 4.21423e-14 0
lhumerus -30.1341 -13.9344 88.0883
lradius 105.96 -0 0
lwrist 30.805 0 0
lhand -36.9167 9.24856 -0.0422173
lfingers 7.12502 -0 0
lthumb -9.99401 38.9852 -0.0396326
rclavicle 3.77691e-15 4.21423e-14 0
rhumerus -43.6828 7.43345 -86.0564
rradius 84.48 -0 0
rwrist 0.456693 0 0
rhand -44.5045 38.0202 0.0024982
rfingers 7.12502 -0 0
rthumb -17.3069 8.76918 0.00286096
72
root 0.562959 17.4049 1.9789 0.928965 2.38035 1.62429
lfemur -19.6329 -0.781367 -23.5446
ltibia 53.516 -0 0
lfoot -10.6688 -1.6585 -0.231711
ltoes -15.057 0 0
rfemur -12.6451 -9.59877 18.6573
rtibia 95.4087 -0 0
rfoot 16.7823 -6.57409 -0.00819623
rtoes 18.7933 -0 0
lowerback 18.079 -0.719275 -3.59391
upperback 2.95832 -1.75857 -1.8322
thorax -6.84098 -0.792131 0.480682
lowerneck -5.49234 -0.347872 -1.60036
upperneck -10.774 -0.173346 3.28856
head -2.3522 -0.0944229 1.26368
lclavicle 3.77691e-15 4.21423e-14 0
lhumerus -29.3672 -14.0615 87.7373
lradius 106.078 -0 0
lwrist 30.6461 0 0
lhand -36.8148 9.05088 -0.0388398
lfingers 7.12502 -0 0
lthumb -9.89573 38.7928 -0.0364657
rclavicle 3.77691e-15 4.21423e-14 0
rhumerus -44.2379 7.25675 -85.9536
rradius 83.818 -0 0
rwrist 0.567079 0 0
rhand -44.5216 38.0301 0.00215718
rfingers 7.12502 -0 0
rthumb -17.3234 8.78074 0.00247157
73
root 0.563634 17.4087 2.51823 0.843291 2.79537 1.8596
lfemur -19.1733 -1.28691 -24.1177
ltibia 51.4093 -0 0
lfoot -11.53 -1.53412 -0.211108
ltoes -15.2347 0 0
rfemur -12.6535 -9.98974 18.1706
rtibia 97.229 -0 0
rfoot 17.8835 -6.57333 -0.00695767
rtoes 19.7273 -0 0
lowerback 18.0684 -0.723922 -3.86306
upperback 2.97524 -1.82617 -1.97155
thorax -6.81586 -0.819494 0.500022
lowerneck -5.63963 -0.459496 -1.68101
upperneck -10.5607 -0.30531 3.52535
head -2.26839 -0.160417 1.3565
lclavicle 3.77691e-15 4.21423e-14 0
lhumerus -28.638 -14.1845 87.4012
lradius 106.191 -0 0
lwrist 30.4909 0 0
lhand -36.7172 8.86029 -0.0352246
lfingers 7.12502 -0 0
lthumb -9.80163 38.6072 -0.0330752
rclavicle 3.77691e-15 4.21423e-14 0
rhumerus -44.769 7.09082 -85.8525
rradius 83.1856 -0 0
rwrist 0.670702 0 0
rhand -44.5381 38.0401 0.00182918
rfingers 7.12502 -0 0
rthumb -17.3392 8.79231 0.00209696
74
root 0.564308 17.4125 3.05756 0.761692 3.18641 2.08293
lfemur -18.7125 -1.75561 -24.6656
ltibia 49.4256 -0 0
lfoot -12.3255 -1.4144 -0.18918
ltoes -15.3989 0 0
rfemur -12.6643 -10.3534 17.7117
rtibia 98.9265 -0 0
rfoot 18.9172 -6.57249 -0.00580803
rtoes 20.614 -0 0
lowerback 18.0579 -0.729148 -4.11658
upperback 2.99063 -1.89084 -2.1025
thorax -6.79271 -0.845751 0.518827
lowerneck -5.7815 -0.564045 -1.75666
upperneck -10.3546 -0.429637 3.74573
head -2.18738 -0.222226 1.44329
lclavicle 3.77691e-15 4.21423e-14 0
lhumerus -27.9513 -14.3035 87.0821
lradius 106.299 -0 0
lwrist 30.3401 0 0
lhand -36.6245 8.67767 -0.0314293
lfingers 7.12502 -0 0
lthumb -9.71217 38.4293 -0.0295149
rclavicle 3.77691e-15 4.21423e-14 0
rhumerus -45.2732 6.93651 -85.7538
rradius 82.5862 -0 0
rwrist 0.766927 0 0
rhand -44.5538 38.05 0.00151774
rfingers 7.12502 -0 0
rthumb -17.3543 8.80379 0.00174116
75
root 0.564982 17.4163 3.59689 0.684109 3.55108 2.29317
lfemur -18.2529 -2.18479 -25.1847
ltibia 47.5771 -0 0
lfoot -13.0492 -1.29986 -0.166316
ltoes -15.5487 0 0
rfemur -12.6782 -10.6875 17.2834
rtibia 100.489 -0 0
rfoot 19.8769 -6.5716 -0.00475298
rtoes 21.4491 -0 0
lowerback 18.0475 -0.734961 -4.3529
upperback 3.00434 -1.95223 -2.22424
thorax -6.77167 -0.870767 0.53701
lowerneck -5.91744 -0.660819 -1.82691
upperneck -10.1565 -0.545407 3.94827
head -2.10946 -0.279432 1.5235
lclavicle 3.77691e-15 4.21423e-14 0
lhumerus -27.3118 -14.4189 86.7822
lradius 106.401 -0 0
lwrist 30.1943 0 0
lhand -36.537 8.5039 -0.0275154
lfingers 7.12502 -0 0
lthumb -9.62782 38.26 -0.0258428
rclavicle 3.77691e-15 4.21423e-14 0
rhumerus -45.7475 6.79467 -85.658
rradius 82.0231 -0 0
rwrist 0.855118 0 0
rhand -44.5685 38.0599 0.0012263
rfingers 7.12502 -0 0
rthumb -17.3685 8.81509 0.00140807
76
root 0.565656 17.4201 4.13621 0.61047 3.88701 2.48923
lfemur -17.7969 -2.57187 -25.6716
ltibia 45.876 -0 0
lfoot -13.6951 -1.19103 -0.142928
ltoes -15.6829 0 0
rfemur -12.6953 -10.9897 16.8886
rtibia 101.906 -0 0
rfoot 20.7564 -6.5707 -0.00379661
rtoes 22.228 -0 0
lowerback 18.0371 -0.741368 -4.57049
upperback 3.01625 -2.01002 -2.33594
thorax -6.75285 -0.894408 0.554484
lowerneck -6.04694 -0.749116 -1.89136
upperneck -9.96694 -0.651695 4.13155
head -2.0349 -0.331616 1.59657
lclavicle 3.77691e-15 4.21423e-14 0
lhumerus -26.7242 -14.531 86.5037
lradius 106.496 -0 0
lwrist 30.0541 0 0
lhand -36.4553 8.33986 -0.0235478
lfingers 7.12502 -0 0
lthumb -9.54903 38.1002 -0.0221195
rclavicle 3.77691e-15 4.21423e-14 0
rhumerus -46.1888 6.66613 -85.566
rradius 81.4998 -0 0
rwrist 0.934641 0 0
rhand -44.5821 38.0696 0.000958218
rfingers 7.12502 -0 0
rthumb -17.3815 8.8261 0.00110148
77
root 0.56633 17.4239 4.67554 0.540695 4.1918 2.66999
lfemur -17.3467 -2.91434 -26.1223
ltibia 44.3344 -0 0
lfoot -14.2571 -1.08843 -0.11944
ltoes -15.8004 0 0
rfemur -12.7163 -11.2576 16.5302
rtibia 103.165 -0 0
rfoot 21.5494 -6.56982 -0.00294167
rtoes 22.9463 -0 0
lowerback 18.0268 -0.748376 -4.76781
upperback 3.02621 -2.06389 -2.43679
thorax -6.73637 -0.916537 0.571162
lowerneck -6.16947 -0.828231 -1.9496
upperneck -9.78661 -0.747568 4.29418
head -1.96397 -0.378358 1.66198
lclavicle 3.77691e-15 4.21423e-14 0
lhumerus -26.1935 -14.6402 86.2486
lradius 106.583 -0 0
lwrist 29.9202 0 0
lhand -36.3799 8.18644 -0.0195938
lfingers 7.12502 -0 0
lthumb -9.47626 37.9507 -0.0184082
rclavicle 3.77691e-15 4.21423e-14 0
rhumerus -46.5942 6.55172 -85.4782
rradius 81.0196 -0 0
rwrist 1.00486 0 0
rhand -44.5943 38.079 0.000716726
rfingers 7.12502 -0 0
rthumb -17.3933 8.83674 0.000825106
78
root 0.567004 17.4277 5.21487 0.474702 4.46307 2.83436
lfemur -16.9049 -3.20978 -26.5334
ltibia 42.9645 -0 0
lfoot -14.7292 -0.992552 -0.0962816
ltoes -15.9002 0 0
rfemur -12.7415 -11.4891 16.2109
rtibia 104.255 -0 0
rfoot 22.2495 -6.56901 -0.00218979
rtoes 23.5993 -0 0
lowerback 18.0166 -0.755991 -4.94331
upperback 3.03409 -2.11349 -2.52598
thorax -6.72236 -0.937019 0.586956
lowerneck -6.28453 -0.897461 -2.00125
upperneck -9.61618 -0.832092 4.43475
head -1.89694 -0.419236 1.71915
lclavicle 3.77691e-15 4.21423e-14 0
lhumerus -25.7242 -14.7468 86.0192
lradius 106.663 -0 0
lwrist 29.7932 0 0
lhand -36.3112 8.04451 -0.0157224
lfingers 7.12502 -0 0
lthumb -9.40999 37.8123 -0.0147737
rclavicle 3.77691e-15 4.21423e-14 0
rhumerus -46.9607 6.45224 -85.3954
rradius 80.5858 -0 0
rwrist 1.06514 0 0
rhand -44.6049 38.0882 0.000504996
rfingers 7.12502 -0 0
rthumb -17.4035 8.84691 0.000582543
79
root 0.567678 17.4315 5.75419 0.412411 4.69844 2.98123
lfemur -16.4737 -3.45582 -26.9009
ltibia 41.7783 -0 0
lfoot -15.1055 -0.9039 -0.0738834
ltoes -15.981 0 0
rfemur -12.7712 -11.6817 15.9338
rtibia 105.163 -0 0
rfoot 22.8505 -6.56829 -0.00154186
rtoes 24.1826 -0 0
lowerback 18.0064 -0.76422 -5.09545
upperback 3.03975 -2.15849 -2.60268
thorax -6.71094 -0.955721 0.601781
lowerneck -6.39159 -0.956099 -2.0459
upperneck -9.45631 -0.904328 4.55184
head -1.83409 -0.45383 1.76756
lclavicle 3.77691e-15 4.21423e-14 0
lhumerus -25.3214 -14.8513 85.8177
lradius 106.733 -0 0
lwrist 29.6739 0 0
lhand -36.2497 7.91496 -0.0120031
lfingers 7.12502 -0 0
lthumb -9.35066 37.6859 -0.011281
rclavicle 3.77691e-15 4.21423e-14 0
rhumerus -47.2853 6.36849 -85.3182
rradius 80.2018 -0 0
rwrist 1.11485 0 0
rhand -44.6138 38.0969 0.000326128
rfingers 7.12502 -0 0
rthumb -17.412 8.85651 0.000377341
